<svg aria-hidden="true" style="position: absolute; width: 0; height: 0; overflow: hidden;" version="1.1" xmlns="http://www.w3.org/2000/svg" xmlns:xlink="http://www.w3.org/1999/xlink">
<defs>
<symbol id="icon-logo" viewBox="0 0 32 32">
<path d="M10.88 13.12h8.96v0.64h-8.96v-0.64z"></path>
<path d="M9.665 13.44c0 0.353-0.287 0.64-0.64 0.64s-0.64-0.287-0.64-0.64c0-0.353 0.287-0.64 0.64-0.64s0.64 0.287 0.64 0.64z"></path>
<path d="M10.88 16.32h8.96v0.64h-8.96v-0.64z"></path>
<path d="M9.665 16.64c0 0.353-0.287 0.64-0.64 0.64s-0.64-0.287-0.64-0.64c0-0.353 0.287-0.64 0.64-0.64s0.64 0.287 0.64 0.64z"></path>
<path d="M9.665 19.84c0 0.353-0.287 0.64-0.64 0.64s-0.64-0.287-0.64-0.64c0-0.353 0.287-0.64 0.64-0.64s0.64 0.287 0.64 0.64z"></path>
<path d="M10.88 22.72h5.12v0.64h-5.12v-0.64z"></path>
<path d="M9.665 23.040c0 0.353-0.287 0.64-0.64 0.64s-0.64-0.287-0.64-0.64c0-0.353 0.287-0.64 0.64-0.64s0.64 0.287 0.64 0.64z"></path>
<path d="M29.375 11.555l-0.905-0.905-0.566 0.566-0.226-0.226-0.882 0.848-3.116 3.084v-5.322c0-2.117-1.657-3.84-3.775-3.84h-0.385v-0.32c0-0.352-0.223-0.64-0.575-0.64h-3.52c0-0.707-0.573-1.28-1.28-1.28s-1.28 0.573-1.28 1.28h-3.52c-0.352 0-0.705 0.288-0.705 0.64v0.32h-0.255c-2.117 0-3.905 1.723-3.905 3.84v16c0 2.117 1.788 3.84 3.905 3.84h11.52c2.117 0 3.775-1.723 3.775-3.84v-7.964l4.191-4.196h0.016l1.14-1.112-0.222-0.217 0.57-0.556zM14.145 4.16c0.353 0 0.64 0.287 0.64 0.64s-0.287 0.64-0.64 0.64-0.64-0.287-0.64-0.64 0.287-0.64 0.64-0.64zM22.4 25.6c0 1.412-1.083 2.56-2.495 2.56h-11.52c-1.412 0-2.625-1.148-2.625-2.56v-16c0-1.412 1.214-2.56 2.625-2.56h0.32l-0.32 1.28c0 0.352 0.288 0.64 0.64 0.64h10.24c0.352 0 0.64-0.288 0.64-0.64l-0.32-1.28h0.32c1.412 0 2.495 1.148 2.495 2.56v6.602l-3.253 3.318h-8.267v0.64h7.627l-0.729 0.729-0.566 1.244h-0l-0.566 1.245 2.457-1.132 3.297-3.33v6.684zM18.635 22.198l-0.933 0.424-0.3-0.299 0.424-0.933 0.808 0.808zM27.96 12.969l-0.905-0.905 0.509-0.509 0.905 0.905 0.113-0.113 0 0-0.623 0.622z"></path>
</symbol>
<symbol id="icon-edit" viewBox="0 0 32 32">
<path d="M0 32c4-12 14.469-32 32-32-8.219 6.594-12 22-18 22s-6 0-6 0l-6 10h-2z"></path>
</symbol>
<symbol id="icon-new" viewBox="0 0 32 32">
<path d="M28.681 7.159c-0.694-0.947-1.662-2.053-2.724-3.116s-2.169-2.030-3.116-2.724c-1.612-1.182-2.393-1.319-2.841-1.319h-15.5c-1.378 0-2.5 1.121-2.5 2.5v27c0 1.378 1.122 2.5 2.5 2.5h23c1.378 0 2.5-1.122 2.5-2.5v-19.5c0-0.448-0.137-1.23-1.319-2.841zM24.543 5.457c0.959 0.959 1.712 1.825 2.268 2.543h-4.811v-4.811c0.718 0.556 1.584 1.309 2.543 2.268zM28 29.5c0 0.271-0.229 0.5-0.5 0.5h-23c-0.271 0-0.5-0.229-0.5-0.5v-27c0-0.271 0.229-0.5 0.5-0.5 0 0 15.499-0 15.5 0v7c0 0.552 0.448 1 1 1h7v19.5z"></path>
<path d="M23 26h-14c-0.552 0-1-0.448-1-1s0.448-1 1-1h14c0.552 0 1 0.448 1 1s-0.448 1-1 1z"></path>
<path d="M23 22h-14c-0.552 0-1-0.448-1-1s0.448-1 1-1h14c0.552 0 1 0.448 1 1s-0.448 1-1 1z"></path>
<path d="M23 18h-14c-0.552 0-1-0.448-1-1s0.448-1 1-1h14c0.552 0 1 0.448 1 1s-0.448 1-1 1z"></path>
</symbol>
<symbol id="icon-close" viewBox="0 0 32 32">
<path d="M14 18v13l-5-5-6 6-3-3 6-6-5-5zM32 3l-6 6 5 5h-13v-13l5 5 6-6z"></path>
</symbol>
<symbol id="icon-add" viewBox="0 0 32 32">
<path d="M8 6l-4-4h-2v2l4 4zM10 0h2v4h-2zM18 10h4v2h-4zM20 4v-2h-2l-4 4 2 2zM0 10h4v2h-4zM10 18h2v4h-2zM2 18v2h2l4-4-2-2zM31.563 27.563l-19.879-19.879c-0.583-0.583-1.538-0.583-2.121 0l-1.879 1.879c-0.583 0.583-0.583 1.538 0 2.121l19.879 19.879c0.583 0.583 1.538 0.583 2.121 0l1.879-1.879c0.583-0.583 0.583-1.538 0-2.121zM15 17l-6-6 2-2 6 6-2 2z"></path>
</symbol>
<symbol id="icon-more" viewBox="0 0 32 32">
<path d="M10.031 32c-2.133-4.438-0.997-6.981 0.642-9.376 1.795-2.624 2.258-5.221 2.258-5.221s1.411 1.834 0.847 4.703c2.493-2.775 2.963-7.196 2.587-8.889 5.635 3.938 8.043 12.464 4.798 18.783 17.262-9.767 4.294-24.38 2.036-26.027 0.753 1.646 0.895 4.433-0.625 5.785-2.573-9.759-8.937-11.759-8.937-11.759 0.753 5.033-2.728 10.536-6.084 14.648-0.118-2.007-0.243-3.392-1.298-5.312-0.237 3.646-3.023 6.617-3.777 10.27-1.022 4.946 0.765 8.568 7.555 12.394z"></path>
</symbol>
<symbol id="icon-delete" viewBox="0 0 32 32">
<path d="M4 10v20c0 1.1 0.9 2 2 2h18c1.1 0 2-0.9 2-2v-20h-22zM10 28h-2v-14h2v14zM14 28h-2v-14h2v14zM18 28h-2v-14h2v14zM22 28h-2v-14h2v14z"></path>
<path d="M26.5 4h-6.5v-2.5c0-0.825-0.675-1.5-1.5-1.5h-7c-0.825 0-1.5 0.675-1.5 1.5v2.5h-6.5c-0.825 0-1.5 0.675-1.5 1.5v2.5h26v-2.5c0-0.825-0.675-1.5-1.5-1.5zM18 4h-6v-1.975h6v1.975z"></path>
</symbol>
</defs>
</svg>
